<mxfile host="app.diagrams.net" modified="2024-07-04T10:55:00.314Z" agent="Mozilla/5.0 (Windows NT 10.0; Win64; x64) AppleWebKit/537.36 (KHTML, like Gecko) Chrome/126.0.0.0 Safari/537.36" etag="hAlLAsFzVf39auWyQ2vk" version="24.6.4" type="github">
  <diagram name="第 1 页" id="tCRuAkxE11DJBtC4yC23">
    <mxGraphModel dx="880" dy="460" grid="1" gridSize="10" guides="1" tooltips="1" connect="1" arrows="1" fold="1" page="1" pageScale="1" pageWidth="827" pageHeight="1169" math="0" shadow="0">
      <root>
        <mxCell id="0" />
        <mxCell id="1" parent="0" />
        <mxCell id="8VwFUUbj821_0IY4-gYr-1" value="浏览器" style="rounded=1;whiteSpace=wrap;html=1;" vertex="1" parent="1">
          <mxGeometry x="40" y="120" width="60" height="120" as="geometry" />
        </mxCell>
        <mxCell id="8VwFUUbj821_0IY4-gYr-3" value="" style="endArrow=none;dashed=1;html=1;dashPattern=1 3;strokeWidth=2;rounded=0;" edge="1" parent="1">
          <mxGeometry width="50" height="50" relative="1" as="geometry">
            <mxPoint x="180" y="410" as="sourcePoint" />
            <mxPoint x="180" y="10" as="targetPoint" />
          </mxGeometry>
        </mxCell>
        <mxCell id="8VwFUUbj821_0IY4-gYr-5" value="web服务器" style="text;html=1;align=center;verticalAlign=middle;resizable=0;points=[];autosize=1;strokeColor=none;fillColor=none;" vertex="1" parent="1">
          <mxGeometry x="500" y="28" width="80" height="30" as="geometry" />
        </mxCell>
        <mxCell id="8VwFUUbj821_0IY4-gYr-12" value="" style="rounded=1;whiteSpace=wrap;html=1;" vertex="1" parent="1">
          <mxGeometry x="280" y="58" width="680" height="322" as="geometry" />
        </mxCell>
        <mxCell id="8VwFUUbj821_0IY4-gYr-7" value="https请求" style="text;html=1;align=center;verticalAlign=middle;resizable=0;points=[];autosize=1;strokeColor=none;fillColor=none;" vertex="1" parent="1">
          <mxGeometry x="110" y="120" width="70" height="30" as="geometry" />
        </mxCell>
        <mxCell id="8VwFUUbj821_0IY4-gYr-8" value="" style="rounded=1;whiteSpace=wrap;html=1;" vertex="1" parent="1">
          <mxGeometry x="330" y="100" width="140" height="260" as="geometry" />
        </mxCell>
        <mxCell id="8VwFUUbj821_0IY4-gYr-14" value="读取index.html" style="shape=parallelogram;perimeter=parallelogramPerimeter;whiteSpace=wrap;html=1;fixedSize=1;" vertex="1" parent="1">
          <mxGeometry x="340" y="167" width="120" height="30" as="geometry" />
        </mxCell>
        <mxCell id="8VwFUUbj821_0IY4-gYr-16" value="" style="rounded=1;whiteSpace=wrap;html=1;" vertex="1" parent="1">
          <mxGeometry x="490" y="100" width="120" height="260" as="geometry" />
        </mxCell>
        <mxCell id="8VwFUUbj821_0IY4-gYr-17" value="openssl库" style="text;html=1;align=center;verticalAlign=middle;resizable=0;points=[];autosize=1;strokeColor=none;fillColor=none;" vertex="1" parent="1">
          <mxGeometry x="510" y="70" width="80" height="30" as="geometry" />
        </mxCell>
        <mxCell id="8VwFUUbj821_0IY4-gYr-18" value="SSL_Write()" style="rounded=0;whiteSpace=wrap;html=1;" vertex="1" parent="1">
          <mxGeometry x="510" y="243" width="80" height="40" as="geometry" />
        </mxCell>
        <mxCell id="8VwFUUbj821_0IY4-gYr-20" value="请求加密" style="text;html=1;align=center;verticalAlign=middle;whiteSpace=wrap;rounded=0;" vertex="1" parent="1">
          <mxGeometry x="410" y="195" width="60" height="30" as="geometry" />
        </mxCell>
        <mxCell id="8VwFUUbj821_0IY4-gYr-23" value="" style="endArrow=classic;html=1;rounded=0;exitX=0.5;exitY=1;exitDx=0;exitDy=0;" edge="1" parent="1" source="8VwFUUbj821_0IY4-gYr-14">
          <mxGeometry width="50" height="50" relative="1" as="geometry">
            <mxPoint x="390" y="270" as="sourcePoint" />
            <mxPoint x="550" y="240" as="targetPoint" />
            <Array as="points">
              <mxPoint x="400" y="220" />
              <mxPoint x="550" y="220" />
            </Array>
          </mxGeometry>
        </mxCell>
        <mxCell id="8VwFUUbj821_0IY4-gYr-24" value="Nginx" style="text;html=1;align=center;verticalAlign=middle;resizable=0;points=[];autosize=1;strokeColor=none;fillColor=none;" vertex="1" parent="1">
          <mxGeometry x="375" y="70" width="50" height="30" as="geometry" />
        </mxCell>
        <mxCell id="8VwFUUbj821_0IY4-gYr-28" value="location /" style="rounded=0;whiteSpace=wrap;html=1;" vertex="1" parent="1">
          <mxGeometry x="351" y="120" width="100" height="30" as="geometry" />
        </mxCell>
        <mxCell id="8VwFUUbj821_0IY4-gYr-30" value="" style="endArrow=classic;html=1;rounded=0;exitX=1;exitY=0.25;exitDx=0;exitDy=0;entryX=0;entryY=0.75;entryDx=0;entryDy=0;" edge="1" parent="1" source="8VwFUUbj821_0IY4-gYr-1" target="8VwFUUbj821_0IY4-gYr-28">
          <mxGeometry width="50" height="50" relative="1" as="geometry">
            <mxPoint x="390" y="270" as="sourcePoint" />
            <mxPoint x="440" y="220" as="targetPoint" />
          </mxGeometry>
        </mxCell>
        <mxCell id="8VwFUUbj821_0IY4-gYr-31" value="" style="endArrow=classic;html=1;rounded=0;exitX=0.5;exitY=1;exitDx=0;exitDy=0;entryX=0.5;entryY=0;entryDx=0;entryDy=0;" edge="1" parent="1" source="8VwFUUbj821_0IY4-gYr-28" target="8VwFUUbj821_0IY4-gYr-14">
          <mxGeometry width="50" height="50" relative="1" as="geometry">
            <mxPoint x="390" y="270" as="sourcePoint" />
            <mxPoint x="440" y="220" as="targetPoint" />
          </mxGeometry>
        </mxCell>
        <mxCell id="8VwFUUbj821_0IY4-gYr-32" value="封装response" style="rounded=0;whiteSpace=wrap;html=1;" vertex="1" parent="1">
          <mxGeometry x="352" y="306" width="99" height="30" as="geometry" />
        </mxCell>
        <mxCell id="8VwFUUbj821_0IY4-gYr-33" value="" style="endArrow=classic;html=1;rounded=0;entryX=1;entryY=0.5;entryDx=0;entryDy=0;exitX=0.5;exitY=1;exitDx=0;exitDy=0;" edge="1" parent="1" source="8VwFUUbj821_0IY4-gYr-18" target="8VwFUUbj821_0IY4-gYr-32">
          <mxGeometry width="50" height="50" relative="1" as="geometry">
            <mxPoint x="390" y="270" as="sourcePoint" />
            <mxPoint x="440" y="220" as="targetPoint" />
            <Array as="points">
              <mxPoint x="550" y="320" />
            </Array>
          </mxGeometry>
        </mxCell>
        <mxCell id="8VwFUUbj821_0IY4-gYr-37" value="" style="endArrow=classic;html=1;rounded=0;exitX=0;exitY=0.5;exitDx=0;exitDy=0;entryX=1;entryY=0.75;entryDx=0;entryDy=0;" edge="1" parent="1" source="8VwFUUbj821_0IY4-gYr-32" target="8VwFUUbj821_0IY4-gYr-1">
          <mxGeometry width="50" height="50" relative="1" as="geometry">
            <mxPoint x="390" y="270" as="sourcePoint" />
            <mxPoint x="440" y="220" as="targetPoint" />
          </mxGeometry>
        </mxCell>
        <mxCell id="8VwFUUbj821_0IY4-gYr-38" value="https响应" style="text;html=1;align=center;verticalAlign=middle;whiteSpace=wrap;rounded=0;" vertex="1" parent="1">
          <mxGeometry x="180" y="230" width="60" height="30" as="geometry" />
        </mxCell>
        <mxCell id="8VwFUUbj821_0IY4-gYr-39" value="" style="rounded=1;whiteSpace=wrap;html=1;" vertex="1" parent="1">
          <mxGeometry x="760" y="160" width="170" height="200" as="geometry" />
        </mxCell>
        <mxCell id="8VwFUUbj821_0IY4-gYr-40" value="sslsniff.py" style="text;html=1;align=center;verticalAlign=middle;whiteSpace=wrap;rounded=0;" vertex="1" parent="1">
          <mxGeometry x="815" y="130" width="60" height="30" as="geometry" />
        </mxCell>
        <mxCell id="8VwFUUbj821_0IY4-gYr-42" value="probe_SSL_rw_enter" style="rounded=1;whiteSpace=wrap;html=1;" vertex="1" parent="1">
          <mxGeometry x="770" y="203" width="150" height="37" as="geometry" />
        </mxCell>
        <mxCell id="8VwFUUbj821_0IY4-gYr-44" value="" style="endArrow=none;html=1;rounded=0;exitX=0;exitY=0.5;exitDx=0;exitDy=0;" edge="1" parent="1" source="8VwFUUbj821_0IY4-gYr-42">
          <mxGeometry width="50" height="50" relative="1" as="geometry">
            <mxPoint x="390" y="270" as="sourcePoint" />
            <mxPoint x="550" y="220" as="targetPoint" />
          </mxGeometry>
        </mxCell>
        <mxCell id="8VwFUUbj821_0IY4-gYr-46" value="eBPF&lt;div&gt;attach_uprobe&lt;br&gt;&lt;/div&gt;" style="text;html=1;align=center;verticalAlign=middle;whiteSpace=wrap;rounded=0;" vertex="1" parent="1">
          <mxGeometry x="640" y="188" width="80" height="30" as="geometry" />
        </mxCell>
        <mxCell id="8VwFUUbj821_0IY4-gYr-47" value="probe_SSL_write_exit" style="rounded=1;whiteSpace=wrap;html=1;" vertex="1" parent="1">
          <mxGeometry x="770" y="299" width="150" height="44" as="geometry" />
        </mxCell>
        <mxCell id="8VwFUUbj821_0IY4-gYr-49" value="" style="endArrow=classic;html=1;rounded=0;entryX=0;entryY=0.5;entryDx=0;entryDy=0;" edge="1" parent="1" target="8VwFUUbj821_0IY4-gYr-47">
          <mxGeometry width="50" height="50" relative="1" as="geometry">
            <mxPoint x="550" y="320" as="sourcePoint" />
            <mxPoint x="450" y="220" as="targetPoint" />
          </mxGeometry>
        </mxCell>
        <mxCell id="8VwFUUbj821_0IY4-gYr-50" value="eBPF&lt;div&gt;attach_uretprobe&lt;br&gt;&lt;/div&gt;" style="text;html=1;align=center;verticalAlign=middle;whiteSpace=wrap;rounded=0;" vertex="1" parent="1">
          <mxGeometry x="640" y="287" width="80" height="30" as="geometry" />
        </mxCell>
      </root>
    </mxGraphModel>
  </diagram>
</mxfile>
